<?xml version="1.0" encoding="UTF-8"?>
<svg id="Layer_1" data-name="Layer 1" xmlns="http://www.w3.org/2000/svg" viewBox="0 0 799.39 235.16">
  <defs>
    <style>
      .cls-1 {
        fill-rule: evenodd;
      }

      .cls-1, .cls-2 {
        fill: #c9d1d9;
      }
    </style>
  </defs>
  <path class="cls-1" d="M89.07,109.23H23.25v-37.34h78.38v-23.25H0v138.55h23.25v-56.99h65.83v-20.98h-.01Z"/>
  <rect class="cls-2" x="135.55" y="49.37" width="103.9" height="20.98"/>
  <polygon class="cls-1" points="241.71 166.21 160.25 166.21 160.25 128.97 222.99 128.97 222.99 107.99 137 107.99 137 187.2 241.71 187.2 241.71 166.21"/>
  <path class="cls-1" d="M302.6,68.21h48.83c12.97,0,23.58,10.61,23.58,23.58h0c0,12.97-10.61,23.58-23.58,23.58h-49.03v-47.16s.2,0,.2,0ZM279.35,48.65v138.55h23.25v-52.25h34.01l42,52.25h26.54l-41.28-53.92c18.02-5.18,31.31-21.86,31.31-41.49h0c0-23.73-19.42-43.15-43.15-43.15h-72.68Z"/>
  <rect class="cls-2" x="439.81" y="48.65" width="23.25" height="138.55"/>
  <polygon class="cls-1" points="559.01 91.75 545.14 109.93 496.59 48.65 525.8 48.65 559.01 91.75"/>
  <path class="cls-1" d="M553.4,113.59l13.97,17.61c-13.84,17.51-30.4,38.48-44.25,55.99h-26.54c18.07-23.43,38.81-50.26,56.82-73.61"/>
  <path class="cls-1" d="M559.68,105.53l13.97,17.61c22.67-28.67,36.34-45.81,59.01-74.49h-29.21c-17.62,22.84-26.19,34.09-43.77,56.88"/>
  <polygon class="cls-1" points="583.27 122.75 569.36 140.43 573.53 145.81 606.13 187.2 632.66 187.2 583.27 122.75"/>
  <path class="cls-1" d="M725.54,77.83c23.12,0,41.85,18.48,41.85,41.27s-18.74,41.27-41.85,41.27-41.85-18.48-41.85-41.27,18.74-41.27,41.85-41.27M725.54,49.52c38.97,0,70.57,31.15,70.57,69.58s-31.6,69.59-70.57,69.59-70.57-31.15-70.57-69.59,31.6-69.58,70.57-69.58Z"/>
  <rect class="cls-2" y="221.91" width="138.01" height="4.41"/>
  <path class="cls-2" d="M615.87,213.45h7c3.2,0,5.82.99,7.85,2.96,2.04,1.97,3.05,4.46,3.05,7.47,0,3.29-.99,5.94-2.96,7.97-1.97,2.02-4.62,3.04-7.95,3.04h-7v-21.43h.01ZM619.97,231.54h2.83c2.25,0,3.95-.69,5.12-2.08s1.75-3.25,1.75-5.58c0-2.06-.62-3.75-1.86-5.07-1.24-1.33-2.93-1.99-5.07-1.99h-2.77v14.72h0ZM603.12,231.6h8.74v3.28h-12.78v-21.43h12.66v3.28h-8.62v5.82h7.66v3.24h-7.66v5.82h0ZM586.33,231.6h8.74v3.28h-12.78v-21.43h12.66v3.28h-8.62v5.82h7.66v3.24h-7.66v5.82h0ZM579.27,213.45v3.31h-5.44v18.12h-4.04v-18.12h-5.44v-3.31h14.92ZM543.88,234.88v-21.43h4.55l5.15,8.94c.85,1.46,1.61,2.82,2.27,4.09.67,1.26,1.12,2.16,1.35,2.69l.35.8c-.17-1.76-.25-4.28-.25-7.57v-8.94h4.04v21.43h-4.58l-5.21-8.9c-.83-1.4-1.57-2.74-2.24-4.02s-1.13-2.21-1.38-2.78l-.38-.89c.23,2.01.35,4.57.35,7.66v8.94h-4.01v-.02ZM536.47,234.88l-1.53-4.87h-8.11l-1.53,4.87h-4.2l7.25-21.43h5.18l7.25,21.43h-4.32.01ZM527.89,226.74h6.04l-.29-.95c-.72-2.29-1.31-4.21-1.76-5.77-.46-1.56-.74-2.54-.84-2.94l-.13-.64c-.19,1.06-1.1,4.19-2.73,9.38l-.29.92ZM514.79,234.88l-4.87-7.82h-2.19v7.82h-4.01v-21.43h6.61c2.44,0,4.35.61,5.74,1.84s2.08,2.87,2.08,4.93c-.02,1.53-.39,2.81-1.11,3.86s-1.71,1.83-2.96,2.34l5.5,8.46h-4.8.01ZM507.73,216.75v7h2.67c1.23,0,2.15-.31,2.77-.94.61-.63.92-1.5.92-2.62s-.32-1.95-.97-2.54c-.65-.59-1.57-.89-2.78-.89h-2.61ZM496.31,234.88l-1.53-4.87h-8.11l-1.53,4.87h-4.2l7.25-21.43h5.18l7.25,21.43h-4.32.01ZM487.73,226.74h6.04l-.29-.95c-.72-2.29-1.31-4.21-1.76-5.77-.46-1.56-.74-2.54-.84-2.94l-.13-.64c-.19,1.06-1.1,4.19-2.73,9.38l-.29.92h0ZM473.96,226.67v-13.23h4.01v13.2c0,2.78-.75,4.89-2.24,6.34s-3.55,2.18-6.15,2.18-4.57-.72-6.09-2.15-2.27-3.48-2.27-6.15v-13.42h4.01v13.39c0,1.63.4,2.81,1.21,3.55.81.73,1.85,1.1,3.15,1.1,2.93,0,4.39-1.6,4.39-4.8h-.02ZM457.1,222.38v10.3h-.03l.03.35c-1.95,1.4-4.39,2.1-7.31,2.1-3.39,0-6.13-.99-8.22-2.96s-3.13-4.65-3.13-8.05,1.08-5.98,3.23-8.01c2.15-2.04,4.87-3.05,8.16-3.05,2.44,0,4.53.46,6.26,1.37v4.1c-1.95-1.17-4.02-1.75-6.2-1.75s-3.87.67-5.18,2c-1.31,1.34-1.97,3.12-1.97,5.34s.64,4.05,1.92,5.36c1.28,1.3,3.05,1.96,5.29,1.96,1.1,0,2.17-.19,3.21-.57v-5.06h-3.94v-3.43h7.89-.01ZM428.61,213.45l-7.38,13.48v7.95h-4.01v-7.82l-7.31-13.61h4.67l1.43,3.12c.83,1.8,1.51,3.31,2.04,4.53s.85,1.98.95,2.27l.19.48c.19-.78,1.28-3.21,3.28-7.28l1.46-3.12h4.68ZM408.55,213.45v3.31h-5.44v18.12h-4.04v-18.12h-5.44v-3.31h14.92ZM386.32,234.88v-21.43h4.01v21.43h-4.01ZM374.68,231.32h8.36v3.56h-12.37v-21.43h4.01v17.87ZM361.96,234.88v-21.43h4.01v21.43h-4.01ZM358.69,213.45v3.31h-5.44v18.12h-4.04v-18.12h-5.44v-3.31h14.92ZM336.84,226.67v-13.23h4.01v13.2c0,2.78-.75,4.89-2.24,6.34s-3.55,2.18-6.15,2.18-4.57-.72-6.09-2.15-2.27-3.48-2.27-6.15v-13.42h4.01v13.39c0,1.63.4,2.81,1.21,3.55.81.73,1.85,1.1,3.15,1.1,2.93,0,4.39-1.6,4.39-4.8h-.02ZM303.58,231.6h8.74v3.28h-12.78v-21.43h12.66v3.28h-8.62v5.82h7.66v3.24h-7.66v5.82h0ZM296.52,213.45v3.31h-5.44v18.12h-4.04v-18.12h-5.44v-3.31h14.92ZM274.68,226.67v-13.23h4.01v13.2c0,2.78-.75,4.89-2.24,6.34s-3.55,2.18-6.15,2.18-4.57-.72-6.09-2.15-2.27-3.48-2.27-6.15v-13.42h4.01v13.39c0,1.63.4,2.81,1.21,3.55.81.73,1.85,1.1,3.15,1.1,2.93,0,4.39-1.6,4.39-4.8h-.02ZM250.67,231.32h8.36v3.56h-12.37v-21.43h4.01v17.87ZM227.11,224.1c0,2.25.53,4.03,1.59,5.34s2.48,1.97,4.26,1.97,3.22-.65,4.26-1.96c1.04-1.3,1.56-3.09,1.56-5.36s-.52-4.06-1.56-5.37-2.47-1.97-4.29-1.97-3.22.66-4.26,1.97-1.56,3.11-1.56,5.37h0ZM222.81,224.1c0-3.33.92-6,2.75-8.01s4.29-3.02,7.36-3.02,5.59,1,7.41,3,2.73,4.68,2.73,8.03-.92,5.97-2.75,7.98-4.29,3.02-7.36,3.02-5.53-1.01-7.38-3.02c-1.84-2.01-2.77-4.67-2.77-7.98h.01ZM219.13,214.34v3.88c-1.59-.95-3.29-1.43-5.09-1.43-1,0-1.78.22-2.34.67s-.84,1.02-.84,1.72.3,1.28.91,1.73c.6.46,1.51.96,2.72,1.51.85.38,1.54.72,2.07,1,.53.29,1.11.68,1.73,1.19.63.51,1.09,1.12,1.4,1.83s.46,1.52.46,2.43c0,1.91-.68,3.43-2.05,4.56-1.37,1.13-3.16,1.7-5.39,1.7-2.42,0-4.42-.46-6.01-1.37v-4.1c1.82,1.31,3.82,1.97,5.98,1.97.98,0,1.76-.24,2.35-.72.59-.48.89-1.12.89-1.92,0-.38-.07-.72-.22-1.02s-.45-.59-.91-.89-.81-.51-1.05-.64-.75-.36-1.51-.7c-.21-.11-.37-.18-.48-.22-.78-.36-1.42-.68-1.91-.97-.49-.29-1.02-.67-1.59-1.16-.57-.49-1-1.07-1.29-1.75s-.43-1.45-.43-2.32c0-1.82.67-3.29,2.02-4.39s3.13-1.65,5.36-1.65c2.01,0,3.75.35,5.21,1.05h0ZM188.38,213.45h7.6c2.29,0,4.07.54,5.34,1.62,1.27,1.08,1.91,2.48,1.91,4.2,0,1.17-.32,2.18-.95,3.04-.64.86-1.45,1.43-2.45,1.7,1.14.28,2.09.83,2.83,1.67s1.11,1.98,1.11,3.42c0,1.7-.59,3.08-1.78,4.17-1.19,1.08-2.83,1.62-4.93,1.62h-8.68v-21.43h0ZM192.38,216.72v5.76h2.42c1.44,0,2.52-.29,3.24-.86s1.08-1.3,1.08-2.19c0-.83-.3-1.48-.91-1.97-.6-.49-1.52-.73-2.75-.73h-3.08ZM192.38,231.6h3.43c2.57,0,3.85-.98,3.85-2.93s-1.34-2.99-4.01-2.99h-3.28v5.91h0ZM180.97,234.88l-1.53-4.87h-8.11l-1.53,4.87h-4.2l7.25-21.43h5.18l7.25,21.43h-4.32.01ZM172.38,226.74h6.04l-.29-.95c-.72-2.29-1.31-4.21-1.76-5.77-.46-1.56-.74-2.54-.84-2.94l-.13-.64c-.19,1.06-1.1,4.19-2.73,9.38l-.29.92h0Z"/>
  <rect class="cls-2" x="661.38" y="221.91" width="138.01" height="4.41"/>
  <path class="cls-1" d="M439.74,13.67c1.62,5.28,1.87,8.47.75,9.56-6.11,3.5-2.36,9.62,11.25,18.38-2.72-4.69,13-6.84,11.44-9.66,0,0-6.88-7.22-20.63-21.66-2.04-1.95-2.98-.83-2.81,3.38"/>
  <path class="cls-1" d="M461.3,20.99c-9.29-8.22-15.94-14.87-17.99-18.24-1.22-2-.12-3.64,1.58-2.2,6.79,5.39,12.98,11.35,18.56,17.91,2.64,3.03.8,5.42-2.16,2.53"/>
</svg>